<?xml version="1.0" standalone="no"?>
<!DOCTYPE svg PUBLIC "-//W3C//DTD SVG 20010904//EN"
 "http://www.w3.org/TR/2001/REC-SVG-20010904/DTD/svg10.dtd">
<svg version="1.0" xmlns="http://www.w3.org/2000/svg"
 width="1000.000000pt" height="350.000000pt" viewBox="0 0 1000.000000 350.000000"
 preserveAspectRatio="xMidYMid meet">
<metadata>
Created by potrace 1.15, written by Peter Selinger 2001-2017
</metadata>
<g transform="translate(0.000000,350.000000) scale(0.100000,-0.100000)"
fill="#000000" stroke="none">
<path d="M2069 3241 c-124 -40 -233 -139 -299 -275 -50 -102 -69 -176 -77
-293 -10 -152 26 -314 97 -438 26 -45 29 -57 20 -80 -13 -33 -7 -52 33 -116
26 -42 28 -53 19 -74 -16 -34 -64 -40 -189 -25 -220 27 -379 -41 -472 -202
-31 -55 -71 -158 -71 -184 0 -17 89 -83 111 -84 11 0 24 20 38 58 57 159 172
228 332 203 34 -6 66 -14 71 -19 14 -14 -83 -129 -150 -179 -75 -57 -151 -86
-228 -86 -102 -1 -164 47 -292 227 -122 171 -190 225 -295 233 -101 8 -180
-38 -223 -132 -28 -59 -30 -113 -8 -158 37 -73 88 -107 160 -107 83 0 139 83
103 153 -26 50 -77 70 -120 47 -29 -16 -23 -30 10 -24 21 5 34 1 50 -15 27
-27 27 -46 -4 -76 -31 -31 -46 -31 -84 1 -79 66 -26 194 81 194 71 0 105 -39
242 -276 153 -263 358 -345 626 -248 128 45 224 101 325 188 l40 35 -3 -103
c-6 -166 34 -262 177 -419 143 -158 177 -237 147 -341 -22 -74 -21 -85 14
-139 50 -80 63 -76 124 44 44 85 58 159 45 241 -12 76 -48 150 -159 328 -104
167 -129 227 -130 303 0 52 4 62 29 88 37 37 65 37 103 -1 29 -29 30 -34 26
-98 -2 -48 -12 -86 -35 -134 l-32 -68 60 -97 c33 -54 63 -99 68 -101 13 -4 86
101 124 178 31 62 32 69 32 191 l0 127 50 -43 c166 -142 367 -221 540 -213 75
3 101 9 159 36 88 41 174 128 241 245 136 235 172 277 243 277 74 0 131 -66
118 -135 -7 -35 -55 -85 -82 -85 -20 0 -64 45 -64 65 0 8 9 24 21 36 15 15 28
19 50 14 33 -8 40 9 10 25 -61 32 -131 -21 -131 -100 0 -23 10 -42 34 -66 29
-29 41 -34 80 -34 72 0 123 34 160 107 47 93 -20 233 -134 281 -51 21 -148 11
-202 -21 -50 -29 -125 -106 -165 -169 -68 -105 -146 -195 -198 -228 -114 -71
-275 -27 -412 111 -30 31 -64 70 -75 87 l-20 32 24 9 c88 33 217 17 287 -36
41 -31 85 -99 106 -164 11 -33 22 -49 33 -49 23 1 112 67 112 84 0 26 -40 129
-71 184 -65 112 -162 178 -300 203 -54 10 -89 9 -172 -1 -128 -16 -174 -9
-188 27 -8 22 -5 34 20 74 38 62 44 81 31 114 -9 23 -6 35 20 80 94 164 124
402 75 590 -53 206 -196 369 -368 420 -68 20 -198 18 -268 -4z"/>
<path d="M6048 3096 c-135 -48 -250 -240 -317 -526 -51 -216 -72 -455 -71
-831 0 -363 14 -532 66 -768 86 -388 219 -571 417 -571 37 0 83 7 102 14 189
79 323 412 364 909 17 194 14 684 -5 878 -29 313 -79 522 -161 682 -79 153
-176 227 -298 226 -33 0 -77 -6 -97 -13z m147 -553 c30 -115 37 -213 42 -568
6 -399 -10 -874 -31 -976 -15 -71 -54 -169 -66 -169 -11 0 -58 152 -70 225
-30 184 -39 693 -20 1120 12 253 29 370 66 452 l26 58 19 -42 c10 -22 26 -67
34 -100z"/>
<path d="M8628 3096 c-135 -48 -250 -240 -317 -526 -51 -216 -72 -455 -71
-831 0 -363 14 -532 66 -768 86 -388 219 -571 417 -571 37 0 83 7 102 14 189
79 323 412 364 909 17 194 14 684 -5 878 -29 313 -79 522 -161 682 -79 153
-176 227 -298 226 -33 0 -77 -6 -97 -13z m147 -553 c30 -115 37 -213 42 -568
6 -399 -10 -874 -31 -976 -15 -71 -54 -169 -66 -169 -11 0 -58 152 -70 225
-30 184 -39 693 -20 1120 12 253 29 370 66 452 l26 58 19 -42 c10 -22 26 -67
34 -100z"/>
<path d="M4640 1756 l0 -1336 180 0 180 0 2 552 3 551 52 18 c302 102 482 364
500 724 12 262 -66 485 -226 644 -128 128 -250 170 -518 178 l-173 6 0 -1337z
m439 858 c61 -69 83 -137 89 -273 5 -127 -6 -198 -45 -274 -24 -49 -98 -137
-114 -137 -5 0 -9 168 -9 375 0 366 0 375 19 366 10 -6 37 -31 60 -57z"/>
<path d="M6770 1755 l0 -1335 285 0 285 0 0 180 0 180 -105 0 -105 0 0 1155 0
1155 -180 0 -180 0 0 -1335z"/>
<path d="M7270 3083 c-1 -5 77 -612 172 -1350 l172 -1343 156 0 155 0 159
1328 c87 730 160 1337 163 1350 l5 22 -191 0 c-146 0 -191 -3 -191 -12 -1 -47
-99 -1410 -102 -1413 -2 -2 -30 318 -63 711 l-59 714 -188 0 c-103 0 -188 -3
-188 -7z"/>
<path d="M1847 1412 c-15 -15 -58 -45 -95 -68 -83 -50 -98 -77 -117 -220 -36
-263 -45 -314 -66 -370 -27 -74 -82 -129 -137 -139 -89 -15 -154 50 -132 132
5 21 17 66 26 101 14 51 15 70 5 101 -15 53 -45 87 -87 101 -122 40 -222 -99
-119 -166 32 -21 42 -13 21 18 -22 31 -20 54 5 71 29 21 72 7 84 -27 8 -22 3
-46 -23 -119 -36 -104 -40 -163 -13 -222 53 -118 218 -167 355 -107 94 42 169
137 209 267 8 28 27 106 42 175 14 69 41 163 60 210 30 78 33 94 32 188 -1 65
-5 102 -11 101 -6 0 -24 -13 -39 -27z"/>
<path d="M2523 1338 c-1 -94 2 -110 32 -188 19 -47 46 -141 60 -210 15 -69 34
-147 42 -175 40 -130 115 -225 209 -267 137 -60 302 -11 355 107 27 59 23 118
-13 222 -27 74 -31 96 -23 120 9 24 16 28 49 28 50 0 66 -22 46 -62 -8 -15
-16 -31 -18 -35 -8 -17 18 -7 47 18 51 43 34 116 -35 149 -68 32 -142 4 -175
-68 -23 -51 -23 -68 -4 -137 35 -124 36 -129 20 -165 -10 -25 -25 -40 -51 -51
-84 -35 -172 19 -213 130 -21 56 -30 107 -66 370 -19 143 -34 170 -117 220
-37 23 -81 53 -97 69 -17 15 -34 27 -39 27 -4 0 -8 -46 -9 -102z"/>
<path d="M657 1372 c-53 -55 -45 -129 21 -196 80 -84 207 -105 314 -53 60 30
148 101 148 121 0 12 -72 76 -84 76 -3 0 -25 -20 -50 -44 -61 -62 -133 -84
-212 -67 -75 17 -106 48 -102 99 3 34 6 37 33 37 27 0 30 -4 33 -32 4 -39 27
-44 36 -8 7 29 -15 79 -39 89 -36 13 -72 5 -98 -22z"/>
<path d="M3662 1393 c-21 -8 -43 -61 -36 -88 8 -31 34 -33 34 -2 0 33 15 49
41 45 20 -2 25 -10 27 -40 3 -31 -2 -43 -24 -63 -74 -69 -205 -54 -291 32 -24
23 -46 43 -49 43 -12 0 -84 -64 -84 -76 0 -20 88 -91 148 -121 107 -52 234
-31 314 53 66 67 74 141 21 196 -26 27 -66 35 -101 21z"/>
<path d="M2057 926 c-9 -13 -26 -52 -38 -87 -57 -170 20 -385 182 -504 173
-127 305 -89 413 122 21 42 49 56 93 48 32 -6 34 -5 24 13 -12 23 -32 32 -72
32 -45 0 -63 -13 -124 -90 -100 -125 -170 -133 -260 -28 -87 103 -127 246 -90
328 17 38 17 40 0 67 -25 38 -98 123 -106 123 -4 0 -14 -11 -22 -24z"/>
<path d="M1702 530 c-30 -28 -28 -32 12 -25 50 10 72 -7 111 -85 61 -121 131
-180 214 -180 40 0 109 25 146 53 19 15 19 17 -25 57 -44 40 -46 41 -71 26
-34 -20 -91 -20 -129 -1 -16 8 -50 44 -75 80 -26 36 -56 72 -68 80 -31 22 -89
19 -115 -5z"/>
</g>
</svg>
