<?xml version="1.0" standalone="no"?>
<!DOCTYPE svg PUBLIC "-//W3C//DTD SVG 20010904//EN"
 "http://www.w3.org/TR/2001/REC-SVG-20010904/DTD/svg10.dtd">
<svg version="1.0" xmlns="http://www.w3.org/2000/svg"
 width="800.000000pt" height="700.000000pt" viewBox="0 0 800.000000 700.000000"
 preserveAspectRatio="xMidYMid meet">
<metadata>
Created by potrace 1.15, written by Peter Selinger 2001-2017
</metadata>
<g transform="translate(0.000000,700.000000) scale(0.100000,-0.100000)"
fill="#000000" stroke="none">
<path d="M3833 6510 c-71 -13 -202 -62 -281 -106 -234 -128 -415 -363 -510
-664 -59 -183 -67 -244 -67 -490 0 -180 4 -242 18 -310 41 -190 93 -331 178
-480 l51 -90 -16 -47 c-28 -81 -16 -136 43 -211 38 -49 71 -116 71 -144 0 -56
-68 -105 -156 -114 -38 -4 -110 2 -199 15 -223 33 -387 23 -554 -34 -260 -88
-443 -300 -537 -619 -33 -115 -32 -125 22 -170 65 -55 156 -107 178 -104 14 2
25 21 41 68 104 309 299 470 571 470 71 0 224 -28 252 -46 l22 -15 -19 -37
c-28 -53 -142 -192 -203 -247 -129 -116 -313 -216 -448 -242 -107 -21 -202 -9
-298 38 -94 46 -209 165 -362 378 -69 96 -159 215 -200 265 -228 275 -546 323
-765 115 -253 -239 -125 -670 199 -669 147 1 258 129 226 262 -13 54 -55 110
-101 134 -56 29 -179 8 -179 -31 0 -11 10 -13 48 -8 34 4 58 1 80 -11 86 -45
79 -163 -12 -208 -40 -19 -50 -20 -84 -10 -56 17 -91 48 -118 106 -31 66 -31
127 0 191 42 89 116 137 211 138 73 1 123 -20 183 -77 74 -70 123 -141 237
-346 136 -245 196 -331 305 -441 136 -138 266 -210 440 -246 109 -23 323 -13
450 21 287 75 582 234 777 418 76 72 98 76 89 16 -3 -24 -9 -104 -13 -178 -9
-205 20 -324 123 -504 65 -112 132 -200 263 -345 140 -156 192 -224 236 -314
63 -129 70 -256 20 -380 -31 -77 -31 -105 -4 -160 41 -81 121 -187 140 -187
37 0 164 204 202 325 63 195 52 381 -32 573 -34 78 -150 281 -212 373 -86 127
-241 398 -268 468 -75 195 -51 365 59 421 52 27 94 25 146 -5 132 -78 130
-294 -6 -542 -22 -40 -40 -78 -40 -85 0 -12 185 -321 225 -375 9 -13 22 -23
30 -23 30 0 199 256 255 388 57 135 74 313 48 500 -16 115 -7 119 78 40 210
-196 485 -344 791 -425 85 -23 119 -26 258 -27 126 0 174 3 225 18 163 45 284
117 410 245 98 99 162 193 296 433 113 203 162 275 236 344 60 57 110 78 183
77 95 -1 169 -49 211 -138 31 -64 31 -125 0 -191 -27 -58 -62 -89 -118 -106
-74 -22 -158 43 -158 122 0 68 64 116 142 107 38 -5 48 -3 48 8 0 39 -123 60
-179 31 -46 -24 -88 -80 -101 -134 -32 -133 79 -261 226 -262 228 -1 382 223
319 465 -42 159 -163 276 -332 320 -105 27 -206 14 -328 -44 -125 -60 -210
-148 -382 -396 -221 -321 -341 -429 -519 -471 -147 -34 -314 14 -514 149 -137
93 -336 317 -328 371 4 29 104 55 233 63 84 5 113 2 178 -16 96 -26 137 -46
205 -102 87 -71 195 -253 228 -382 3 -16 13 -31 22 -35 20 -7 103 37 176 95
l58 47 -5 45 c-9 72 -84 271 -135 357 -59 102 -194 238 -283 288 -131 72 -310
116 -474 116 -44 0 -141 -9 -215 -20 -90 -14 -155 -18 -195 -14 -98 11 -165
56 -165 112 0 28 33 95 71 144 59 75 71 130 43 211 l-16 47 55 98 c97 173 162
367 188 566 15 121 7 426 -15 531 -84 395 -283 691 -568 844 -40 22 -116 54
-168 72 -87 30 -107 33 -240 35 -80 2 -168 -1 -197 -6z"/>
<path d="M3321 2856 c-47 -48 -173 -138 -275 -195 -46 -26 -91 -53 -100 -60
-38 -32 -85 -242 -111 -495 -43 -414 -97 -624 -193 -751 -92 -121 -239 -167
-357 -111 -58 27 -88 57 -110 108 -23 56 -18 111 19 222 64 188 70 282 25 387
-98 227 -469 181 -469 -58 0 -74 64 -153 125 -153 21 0 19 15 -10 58 -34 50
-33 96 4 132 37 37 73 46 118 29 83 -32 101 -125 49 -249 -78 -186 -90 -230
-91 -335 0 -93 2 -105 34 -172 77 -166 244 -263 451 -263 260 0 471 136 596
384 56 113 95 240 134 441 57 291 91 406 177 600 l45 100 -13 93 c-7 58 -9
127 -5 180 4 48 8 98 9 111 3 36 -15 35 -52 -3z"/>
<path d="M4627 2883 c-3 -5 0 -52 6 -105 8 -74 8 -123 -2 -200 l-12 -103 44
-100 c86 -194 123 -320 182 -625 80 -415 218 -638 461 -746 163 -72 372 -71
516 2 81 41 160 123 199 207 32 67 34 79 34 172 -1 105 -13 149 -91 335 -33
80 -38 163 -11 204 27 41 82 61 128 47 76 -23 100 -95 54 -163 -14 -20 -25
-42 -25 -47 0 -30 74 3 113 49 73 86 25 219 -98 276 -127 60 -290 1 -344 -125
-45 -105 -39 -199 25 -387 37 -111 42 -166 19 -222 -22 -51 -52 -81 -110 -108
-117 -55 -261 -12 -354 105 -96 122 -161 376 -196 766 -17 188 -66 418 -100
471 -8 12 -52 43 -98 68 -99 54 -226 142 -282 197 -42 40 -50 45 -58 32z"/>
<path d="M940 2778 c-26 -14 -57 -41 -75 -66 -27 -40 -30 -51 -30 -125 0 -95
20 -146 88 -223 155 -176 433 -219 667 -103 105 52 288 211 277 242 -3 11
-173 137 -184 137 -4 0 -37 -33 -74 -73 -128 -139 -296 -196 -454 -153 -133
35 -205 105 -205 200 0 37 5 48 31 70 40 34 64 33 101 -4 26 -26 29 -36 27
-77 -4 -58 13 -67 41 -21 56 92 -21 218 -132 218 -19 0 -54 -10 -78 -22z"/>
<path d="M6908 2779 c-70 -36 -98 -132 -58 -197 27 -44 45 -37 41 17 -3 51 15
83 59 101 28 11 34 11 58 -7 70 -52 64 -122 -17 -203 -38 -38 -63 -53 -116
-69 -174 -54 -345 -2 -485 146 -45 47 -75 72 -82 67 -21 -12 -128 -88 -156
-110 l-26 -22 38 -47 c54 -66 156 -148 235 -188 239 -123 519 -83 678 97 68
77 88 128 88 223 0 74 -3 85 -30 125 -56 79 -151 108 -227 67z"/>
<path d="M3712 1878 c-5 -7 -23 -40 -39 -73 -141 -283 -113 -609 75 -887 90
-133 233 -263 363 -328 142 -72 283 -80 401 -22 85 42 175 138 242 259 83 149
94 163 144 185 39 18 52 19 91 10 52 -12 60 -9 45 16 -17 28 -95 62 -142 62
-81 0 -123 -32 -251 -197 -107 -137 -179 -187 -266 -186 -103 0 -213 81 -309
227 -145 216 -188 426 -121 575 14 29 25 63 25 76 0 34 -70 132 -174 243 -50
54 -66 61 -84 40z"/>
<path d="M3020 1078 c-42 -22 -70 -51 -59 -62 3 -3 23 -1 44 5 91 26 150 -25
244 -208 68 -132 125 -208 197 -259 88 -63 203 -80 328 -48 76 19 198 90 194
113 -2 9 -38 50 -81 91 -67 64 -80 73 -95 62 -163 -116 -289 -81 -429 117 -38
53 -83 113 -102 134 -69 77 -157 97 -241 55z"/>
</g>
</svg>
